# xmcd
#
# Track frame offsets:
#	150
#	13827
#	27212
#	48602
#	65342
#	86580
#	104975
#	122212
#	142167
#	157228
#	173665
#	190483
#	207295
#	221317
#	235646
#	256057
#	268929
#	282269
#	296514
#	308473
#	319818
#	333086
#
# Disc length: 4634 seconds
#
# Revision: 0
# Processed by: cddbd v1.5.2PL0 Copyright (c) Steve Scherf et al.
# Submitted via: EasyCDDAExtractor 2010.4.0.0
#
DISCID=4e121816
DTITLE=Various Artist - Country Love
DYEAR=2012
DGENRE=Country
TTITLE0=Lee Greenwood - Don't Underestimate My Love for You
TTITLE1=Johnny Lee - One in a Million
TTITLE2=John Denver - My Sweet Lady
TTITLE3=Gene Cotton and Kim Carnes - You're a Part of Me
TTITLE4=Olivia Newton-John - Come On Over
TTITLE5=Alabama - I Wanna be with You Tonight
TTITLE6=Charlie Rich - My Elusive Dreams
TTITLE7=Stella Parton - I Want to Hold You in My Dreams
TTITLE8=Lynn Anderson - Could I Have this Dance
TTITLE9=Debby Boone - You Light Up My Life
TTITLE10=Stella Parton - Cross My Heart
TTITLE11=Johnny Lee - Prisoner of Love
TTITLE12=Lee Greenwood - I.O.U.
TTITLE13=Glenn Campbell - In Your Loving Arms
TTITLE14=Carl Jackson - Love Hurts
TTITLE15=Don Williams - Amada
TTITLE16=Dolly Parton - I Will Always Love You
TTITLE17=George Jones - A Good Year for the Roses
TTITLE18=Wanda Jackson - Happy, Happy Birthday Baby
TTITLE19=Bobby Bare - Please Don't Tell Me How the Story Ends
TTITLE20=Wanda Jackson - I Fall to Pieces
TTITLE21=Freddy Fender - Since I Met You, Baby
EXTD=
EXTT0=
EXTT1=
EXTT2=
EXTT3=
EXTT4=
EXTT5=
EXTT6=
EXTT7=
EXTT8=
EXTT9=
EXTT10=
EXTT11=
EXTT12=
EXTT13=
EXTT14=
EXTT15=
EXTT16=
EXTT17=
EXTT18=
EXTT19=
EXTT20=
EXTT21=
PLAYORDER=
